<svg xmlns:mydata="http://www.w3.org/2000/svg" xmlns="http://www.w3.org/2000/svg" xmlns:xlink="http://www.w3.org/1999/xlink" mydata:contrastcolor="e6f1f5" mydata:template="Default" mydata:presentation="2.5" mydata:layouttype="undefined" mydata:specialfontid="undefined" mydata:id1="807" mydata:id2="811" mydata:companyname="UNIQE" mydata:companytagline="" version="1.1" viewBox="121 280 308 75">
  <g fill="#688272" fill-rule="none" stroke="none" stroke-width="1" stroke-linecap="butt" stroke-linejoin="miter" stroke-miterlimit="10" stroke-dasharray="" stroke-dashoffset="0" font-family="none" font-weight="none" font-size="none" text-anchor="none" style="mix-blend-mode: normal">
    <g data-paper-data="{&quot;isGlobalGroup&quot;:true,&quot;bounds&quot;:{&quot;x&quot;:121.20668982035644,&quot;y&quot;:114.99999999999997,&quot;width&quot;:307.58662035928705,&quot;height&quot;:240.00000000000003}}">
      <g data-paper-data="{&quot;isPrimaryText&quot;:true}" fill-rule="nonzero" id="element-id-35663">
        <path d="M158.67034,345.2906h11.44977c8.97662,0 16.39607,-7.41945 16.39607,-16.39607v-48.82182h-9.61781v48.82182c0,3.66393 -3.11434,6.86986 -6.77826,6.86986h-11.44977zM121.20669,335.39799c3.66393,3.84712 10.25899,9.8926 15.84648,9.8926h11.99936v-9.52621h-9.8926c-4.30511,0 -8.33543,-2.10676 -8.33543,-6.86986v-48.82182h-9.61781z" data-paper-data="{&quot;glyphName&quot;:&quot;U&quot;,&quot;glyphIndex&quot;:0,&quot;firstGlyphOfWord&quot;:true,&quot;word&quot;:1}" id="element-id-64940" fill="#688272"/>
        <path d="M252.00886,345.2906h8.97662v-65.21789h-9.61781v50.37899l-46.07387,-50.37899h-9.61781v9.61781h5.49589zM205.2938,308.28494h-9.61781v37.00566h9.61781z" data-paper-data="{&quot;glyphName&quot;:&quot;N&quot;,&quot;glyphIndex&quot;:1,&quot;word&quot;:1}" id="element-id-82970" fill="#688272"/>
        <path d="M279.7631,280.07271h-9.61781v65.21789h9.61781z" data-paper-data="{&quot;glyphName&quot;:&quot;I&quot;,&quot;glyphIndex&quot;:2,&quot;word&quot;:1}" id="element-id-64636" fill="#688272"/>
        <path d="M344.7062,343.91662c5.77068,-2.74794 9.52621,-8.51863 9.52621,-14.9305v-32.42575c0,-9.06822 -7.32785,-16.39607 -16.39607,-16.39607h-33.06694c-8.70183,0 -15.84648,7.87744 -15.84648,16.39607v32.42575c0,8.42703 7.23625,16.39607 15.84648,16.39607h15.93808l-8.24383,-9.52621c-1.28237,0 -2.56475,0.0916 -3.84712,0.0916c-4.9463,0 -10.0758,-0.91598 -10.0758,-6.96146v-32.42575c0,-3.38913 2.93114,-6.77826 6.41187,-6.77826h32.88374c3.66393,0 6.77826,3.02274 6.77826,6.68667v32.51735c0,3.75552 -2.93114,6.86986 -6.77826,6.86986l-8.24383,-9.61781h-12.64055l24.6399,28.76182h12.64055z" data-paper-data="{&quot;glyphName&quot;:&quot;Q&quot;,&quot;glyphIndex&quot;:3,&quot;word&quot;:1}" id="element-id-32836" fill="#688272"/>
        <path d="M428.70171,335.67279h-55.69168v-17.77004h46.07387v-9.61781h-55.69168v37.00566h65.30949zM428.79331,280.07271h-65.40109v9.61781h65.40109z" data-paper-data="{&quot;glyphName&quot;:&quot;E&quot;,&quot;glyphIndex&quot;:4,&quot;lastGlyphOfWord&quot;:true,&quot;word&quot;:1}" id="element-id-39897" fill="#688272"/>
      </g>
      
    </g>
  </g>
  <rect data-element-id="element-id-35663" stroke-width="2" fill="transparent" class="invisible-element-box grouping-element" x="121" y="280" width="308" height="75" data-element-name="isPrimaryText"/>
  
  
  
  <rect data-element-id="element-id-32836" stroke-width="2" fill="transparent" class="invisible-element-box individual-element" x="289" y="280" width="65" height="75"/>
  <rect data-element-id="element-id-64940" stroke-width="2" fill="transparent" class="invisible-element-box individual-element" x="121" y="280" width="65" height="65"/>
  <rect data-element-id="element-id-82970" stroke-width="2" fill="transparent" class="invisible-element-box individual-element" x="196" y="280" width="65" height="65"/>
  <rect data-element-id="element-id-39897" stroke-width="2" fill="transparent" class="invisible-element-box individual-element" x="363" y="280" width="65" height="65"/>
  <rect data-element-id="element-id-64636" stroke-width="2" fill="transparent" class="invisible-element-box individual-element" x="270" y="280" width="10" height="65"/>

</svg>