<svg
  xmlns:mydata="http://www.w3.org/2000/svg"
  mydata:contrastcolor="688272"
  mydata:template="InvertedHex1"
  mydata:presentation="2.5"
  mydata:layouttype="undefined"
  mydata:specialfontid="undefined"
  mydata:id1="004"
  mydata:id2="414"
  mydata:companyname="UNIQE"
  mydata:companytagline=""
  version="1.1"
  xmlns="http://www.w3.org/2000/svg"
  xmlns:xlink="http://www.w3.org/1999/xlink"
  style="height: 535px"
  viewBox="65 187.73 420 95.27"
>
  <g
    fill="#688272"
    fill-rule="none"
    stroke="none"
    stroke-width="1"
    stroke-linecap="butt"
    stroke-linejoin="miter"
    stroke-miterlimit="10"
    stroke-dasharray=""
    stroke-dashoffset="0"
    font-family="none"
    font-weight="none"
    font-size="none"
    text-anchor="none"
    style="mix-blend-mode: normal"
  >
    <g
      data-paper-data='{"isGlobalGroup":true,"bounds":{"x":65,"y":187.73212402540898,"width":420,"height":94.53575194918207}}'
    >
      <g
        data-paper-data='{"isPrimaryText":true}'
        fill-rule="nonzero"
        id="element-id-42991"
      >
        <path
          d="M252.60082,201.58922h-9.51117c-1.7293,0 -2.7861,0.57643 -2.7861,2.7861v39.0054c0,6.05256 -4.03504,9.51117 -10.37582,9.51117c-6.34078,0 -10.27975,-3.45861 -10.27975,-9.51117v-39.0054c0,-2.20967 -1.0568,-2.7861 -2.7861,-2.7861h-9.51117c-1.7293,0 -2.7861,0.57643 -2.7861,2.7861v41.11899c0,15.08337 13.9305,20.75164 25.36312,20.75164c11.43262,0 25.45919,-5.66827 25.45919,-20.75164v-41.11899c0,-2.20967 -1.0568,-2.7861 -2.7861,-2.7861z"
          data-paper-data='{"glyphName":"U","glyphIndex":0,"firstGlyphOfWord":true,"word":1}'
          id="element-id-79415"
        ></path>
        <path
          d="M317.35363,201.58922h-9.22295c-1.7293,0 -2.7861,0.57643 -2.7861,2.7861v33.33713l-20.36735,-32.85677c-1.24894,-1.92145 -1.92145,-3.26646 -4.32326,-3.26646h-9.03081c-2.20967,0 -2.7861,1.0568 -2.7861,2.7861v57.64345c0,2.20967 1.0568,2.7861 2.7861,2.7861h9.51117c1.7293,0 2.7861,-0.57643 2.7861,-2.7861v-33.4332l20.36735,32.95284c1.24894,1.92145 1.92145,3.26646 4.32326,3.26646h8.74259c2.20967,0 2.7861,-1.0568 2.7861,-2.7861v-57.64345c0,-2.20967 -1.0568,-2.7861 -2.7861,-2.7861z"
          data-paper-data='{"glyphName":"N","glyphIndex":1,"word":1}'
          id="element-id-89917"
        ></path>
        <path
          d="M361.83516,251.64295h-6.05256v-36.69966h5.76435c2.20967,0 2.7861,-1.0568 2.7861,-2.7861v-7.78187c0,-1.7293 -0.57643,-2.7861 -2.7861,-2.7861h-26.70813c-2.20967,0 -2.7861,1.0568 -2.7861,2.7861v7.78187c0,1.7293 0.57643,2.7861 2.7861,2.7861h5.86042v36.69966h-6.05256c-2.20967,0 -2.7861,1.0568 -2.7861,2.7861v7.58972c0,1.7293 0.57643,2.7861 2.7861,2.7861h27.18849c2.20967,0 2.7861,-1.0568 2.7861,-2.7861v-7.58972c0,-1.7293 -0.57643,-2.7861 -2.7861,-2.7861z"
          data-paper-data='{"glyphName":"I","glyphIndex":2,"word":1}'
          id="element-id-7301"
        ></path>
        <path
          d="M426.87619,260.28947l-3.65075,-4.13111c2.49788,-3.17039 3.36253,-6.629 3.36253,-11.52869v-22.67309c0,-15.17944 -14.41086,-21.71237 -25.84348,-21.71237c-11.43262,0 -25.65134,6.53292 -25.65134,21.71237v22.67309c0,15.17944 14.21872,21.71237 25.65134,21.71237c4.13111,0 8.16616,-0.38429 12.2012,-2.11359l4.61148,4.70755c1.24894,1.24894 2.7861,1.0568 4.32326,-0.48036l4.61148,-3.74682c1.63323,-1.63323 1.63323,-3.26646 0.38429,-4.41933zM411.60067,243.18858c0,6.14863 -4.41933,9.70331 -10.76011,9.70331c-6.24471,0 -10.66404,-3.55468 -10.66404,-9.70331v-19.98306c0,-6.14863 4.41933,-9.70331 10.66404,-9.70331c6.34078,0 10.76011,3.55468 10.76011,9.70331z"
          data-paper-data='{"glyphName":"Q","glyphIndex":3,"word":1}'
          id="element-id-6874"
        ></path>
        <path
          d="M482.2139,251.45081h-42.46401c-1.7293,0 -2.7861,0.57643 -2.7861,2.7861v7.87794c0,2.20967 1.0568,2.7861 2.7861,2.7861h42.46401c1.7293,0 2.7861,-0.57643 2.7861,-2.7861v-7.87794c0,-2.20967 -1.0568,-2.7861 -2.7861,-2.7861zM477.41028,226.47198h-32.85677c-1.7293,0 -2.7861,0.57643 -2.7861,2.7861v7.87794c0,2.20967 1.0568,2.7861 2.7861,2.7861h32.85677c1.7293,0 2.7861,-0.57643 2.7861,-2.7861v-7.87794c0,-2.20967 -1.0568,-2.7861 -2.7861,-2.7861zM482.2139,201.6853h-42.46401c-1.7293,0 -2.7861,0.57643 -2.7861,2.7861v7.87794c0,2.20967 1.0568,2.7861 2.7861,2.7861h42.46401c1.7293,0 2.7861,-0.57643 2.7861,-2.7861v-7.87794c0,-2.20967 -1.0568,-2.7861 -2.7861,-2.7861z"
          data-paper-data='{"glyphName":"ξ","glyphIndex":4,"lastGlyphOfWord":true,"word":1}'
          id="element-id-80277"
        ></path>
      </g>
      <g
        data-paper-data='{"fillRule":"evenodd","fillRuleOriginal":"evenodd","isIcon":true,"iconStyle":"standalone","selectedEffects":{"container":"","transformation":"rotate0;translate50","pattern":""},"bounds":{"x":65,"y":187.73212402540898,"width":109.20140206703564,"height":94.53575194918207},"iconType":"icon","rawIconId":"3612723","isDetailed":false,"suitableAsStandaloneIcon":true}'
        fill-rule="evenodd"
        id="element-id-24218"
      >
        <path
          d="M125.09968,188.28954l48.95255,84.78959c0.20624,0.35797 0.19844,0.80089 -0.0223,1.15073l-4.72464,7.5174c-0.20402,0.32442 -0.56076,0.52062 -0.94426,0.52062h-97.52104c-0.38339,0 -0.7398,-0.19621 -0.94393,-0.52062l-4.72487,-7.5174c-0.22018,-0.34983 -0.22854,-0.79275 -0.02185,-1.15073l48.95233,-84.78959c0.19911,-0.34504 0.56722,-0.55753 0.96566,-0.55741h9.06668c0.39844,-0.00011 0.76656,0.21237 0.96566,0.55741zM122.27348,272.52171h48.88243l-47.66526,-82.55993h-6.49209l25.70972,44.52891c0.20635,0.35753 0.20089,0.79911 -0.01416,1.15128c-0.20112,0.33055 -0.5592,0.53333 -0.94604,0.53568c-0.02185,0 -0.04359,-0.00056 -0.06533,-0.00223c-3.67548,-0.24894 -7.29533,-1.03144 -10.74549,-2.32275l0.00011,-0.00033c-7.34583,-2.72787 -13.24427,-7.33601 -16.32053,-12.70558l-6.68083,0.12843c1.14091,1.8689 2.46912,3.61661 3.96422,5.21628c5.93233,6.37548 14.93156,11.43624 24.69066,13.8853c2.01673,0.50658 4.0611,0.89576 6.12286,1.16544c0.566,0.07336 0.98517,0.56232 0.97113,1.13278c-0.01405,0.57057 -0.45663,1.03835 -1.02553,1.08383c-1.65998,0.13902 -3.30703,0.40245 -4.92754,0.78818c-3.6767,0.89153 -7.22096,2.26009 -10.54293,4.07068c-3.39164,1.83278 -6.57905,4.02074 -9.50871,6.52687c-0.13456,3.4796 -0.66232,6.93301 -1.57313,10.29399c0.08168,-0.08577 0.16332,-0.17139 0.24493,-0.25686c7.21372,-7.53323 16.43613,-13.04761 25.30247,-15.12967c2.91527,-0.70702 5.91305,-1.01405 8.91105,-0.91293c0.38306,0.01494 0.73144,0.22598 0.92207,0.55853l0.0913,0.15908l0.00022,-0.00011l8.97035,15.53847c0.19955,0.34493 0.19955,0.77001 0,1.11494c-0.19844,0.34493 -0.56633,0.55741 -0.96522,0.5573h-32.16201c-1.90145,1.634 -3.62709,3.46198 -5.14872,5.45441zM139.70571,233.74877l-24.63871,-42.67217l-47.65099,82.53541l3.38339,5.38161l25.38765,-43.97272c0.2048,-0.35463 0.58762,-0.56845 0.99699,-0.55686c0.40936,0.01159 0.77938,0.24671 0.96377,0.61237c1.62943,3.28785 2.7728,6.79488 3.39454,10.41127l-1.09844,0.19219l1.09844,-0.19164c1.33579,7.65129 0.34382,15.02688 -2.67982,20.4115l3.54404,5.56344c0.97782,-1.86232 1.77269,-3.81505 2.37369,-5.83078c2.49632,-8.33401 2.33847,-18.63368 -0.43445,-28.25833c-0.62263,-2.17882 -1.38339,-4.31595 -2.27759,-6.39822c-0.22954,-0.53088 -0.01505,-1.14927 0.49398,-1.42397c0.50914,-0.27458 1.1437,-0.11438 1.46132,0.36901c1.01338,1.52999 2.15285,2.97269 3.40658,4.31282c2.6077,2.76366 5.56612,5.17359 8.7999,7.16857c3.27113,2.03233 6.74772,3.71372 10.3718,5.01617c3.0796,-1.63545 6.33512,-2.91539 9.70391,-3.81528c-0.08495,-0.02129 -0.17091,-0.04259 -0.25697,-0.06377c-10.16623,-2.55128 -19.56278,-7.84672 -25.78152,-14.52922c-2.06132,-2.18718 -3.8184,-4.64237 -5.22353,-7.29911c-0.17548,-0.33802 -0.16644,-0.74214 0.02397,-1.0719l9.00569,-15.59834c0.21494,-0.3233 0.57737,-0.51761 0.96566,-0.51761c0.38829,0 0.75073,0.19431 0.96566,0.51761l4.56165,7.90023l11.51573,19.94628c2.46678,0.89309 5.02286,1.51717 7.62364,1.86143zM118.31316,212.49847l-3.27414,-5.67046l-7.05296,12.21584l6.62208,-0.12743zM128.68898,230.47017l-9.0883,-15.74171l-3.06254,5.30435c2.38673,4.17559 6.70993,7.85597 12.15085,10.43736zM72.77109,280.03822h94.97455l3.3233,-5.28696h-50.94787c-0.40981,-0.00022 -0.7864,-0.22509 -0.98094,-0.58573c-0.19465,-0.36065 -0.17581,-0.79888 0.04894,-1.14147c1.97514,-2.96399 4.36188,-5.63189 7.08853,-7.92353c5.97838,-5.04682 12.88295,-7.91461 19.10481,-7.94984l3.38484,-5.78819c-2.22497,0.05753 -4.43791,0.34582 -6.60324,0.86031c-8.45709,1.98584 -17.27883,7.27146 -24.2008,14.50046c-1.52564,1.59019 -2.94994,3.27458 -4.26433,5.04337c-0.34259,0.46254 -0.98083,0.58819 -1.47313,0.29019c-0.49231,-0.2981 -0.6767,-0.92207 -0.42564,-1.43991c0.77503,-1.60781 1.42085,-3.27481 1.93133,-4.98507c1.05663,-3.60279 1.64571,-7.32632 1.75285,-11.07916c0.11851,-3.86901 -0.17235,-7.73969 -0.868,-11.5475c-2.99498,-1.89131 -5.76143,-4.1223 -8.24438,-6.6485c0.03913,0.13278 0.07837,0.26622 0.1165,0.40011c2.8883,10.02476 3.04404,20.78274 0.42787,29.51575c-0.82007,2.78729 -1.99487,5.45764 -3.49588,7.94538c-0.20245,0.33144 -0.56299,0.53356 -0.9515,0.53344h-18.16601c-0.39833,0.00011 -0.76645,-0.21237 -0.96566,-0.5573c-0.19922,-0.34493 -0.19922,-0.77001 0,-1.11494l4.43646,-7.68407l11.49366,-19.90715c-0.47079,-2.56935 -1.21661,-5.08061 -2.22453,-7.49053zM124.07392,247.83551c-2.39242,-0.95195 -4.71762,-2.06455 -6.95987,-3.33033c0.37759,2.55719 0.58138,5.13701 0.61026,7.72175c2.01449,-1.60602 4.1359,-3.07325 6.34961,-4.39142zM96.935,264.83765c2.35764,-4.18886 3.332,-9.76757 2.81717,-15.72978l-9.08172,15.72978zM151.10605,264.83765h6.54683l-7.04583,-12.20424l-3.29409,5.63367zM148.53091,264.83765l-3.15006,-5.4572c-4.83323,0.03712 -10.18596,1.97815 -15.11261,5.4572zM96.96219,267.0673h-7.57894l-3.14906,5.45441h14.20247z"
          data-paper-data='{"isPathIcon":true}'
          id="element-id-20703"
        ></path>
      </g>
    </g>
  </g>
  <rect
    data-element-id="element-id-42991"
    stroke-width="2"
    fill="transparent"
    class="invisible-element-box grouping-element"
    x="205"
    y="200"
    width="280"
    height="70"
    data-element-name="isPrimaryText"
  ></rect>
  <rect
    data-element-id="element-id-24218"
    stroke-width="2"
    fill="transparent"
    class="invisible-element-box grouping-element"
    x="65"
    y="188"
    width="109"
    height="95"
    data-element-name="isIcon"
  ></rect>
  <rect
    data-element-id="element-id-20703"
    stroke-width="2"
    fill="transparent"
    class="invisible-element-box individual-element"
    x="65"
    y="188"
    width="109"
    height="95"
  ></rect>
  <rect
    data-element-id="element-id-6874"
    stroke-width="2"
    fill="transparent"
    class="invisible-element-box individual-element"
    x="375"
    y="200"
    width="53"
    height="70"
  ></rect>
  <rect
    data-element-id="element-id-79415"
    stroke-width="2"
    fill="transparent"
    class="invisible-element-box individual-element"
    x="205"
    y="202"
    width="51"
    height="65"
  ></rect>
  <rect
    data-element-id="element-id-89917"
    stroke-width="2"
    fill="transparent"
    class="invisible-element-box individual-element"
    x="269"
    y="202"
    width="51"
    height="63"
  ></rect>
  <rect
    data-element-id="element-id-80277"
    stroke-width="2"
    fill="transparent"
    class="invisible-element-box individual-element"
    x="437"
    y="202"
    width="48"
    height="63"
  ></rect>
  <rect
    data-element-id="element-id-7301"
    stroke-width="2"
    fill="transparent"
    class="invisible-element-box individual-element"
    x="332"
    y="202"
    width="33"
    height="63"
  ></rect>
</svg>
