<svg
  xmlns:mydata="http://www.w3.org/2000/svg"
  xmlns="http://www.w3.org/2000/svg"
  xmlns:xlink="http://www.w3.org/1999/xlink"
  mydata:contrastcolor="e6f1f5"
  mydata:template="Default"
  mydata:presentation="2.5"
  mydata:layouttype="undefined"
  mydata:specialfontid="undefined"
  mydata:id1="807"
  mydata:id2="811"
  mydata:companyname="UNIQE"
  mydata:companytagline=""
  version="1.1"
  style="height: 535px"
  viewBox="121 115 308 240"
>
  <g
    fill="#688272"
    fill-rule="none"
    stroke="none"
    stroke-width="1"
    stroke-linecap="butt"
    stroke-linejoin="miter"
    stroke-miterlimit="10"
    stroke-dasharray=""
    stroke-dashoffset="0"
    font-family="none"
    font-weight="none"
    font-size="none"
    text-anchor="none"
    style="mix-blend-mode: normal"
  >
    <g
      data-paper-data='{"isGlobalGroup":true,"bounds":{"x":121.20668982035644,"y":114.99999999999997,"width":307.58662035928705,"height":240.00000000000003}}'
    >
      <g
        data-paper-data='{"isPrimaryText":true}'
        fill-rule="nonzero"
        id="element-id-35663"
      >
        <path
          d="M158.67034,345.2906h11.44977c8.97662,0 16.39607,-7.41945 16.39607,-16.39607v-48.82182h-9.61781v48.82182c0,3.66393 -3.11434,6.86986 -6.77826,6.86986h-11.44977zM121.20669,335.39799c3.66393,3.84712 10.25899,9.8926 15.84648,9.8926h11.99936v-9.52621h-9.8926c-4.30511,0 -8.33543,-2.10676 -8.33543,-6.86986v-48.82182h-9.61781z"
          data-paper-data='{"glyphName":"U","glyphIndex":0,"firstGlyphOfWord":true,"word":1}'
          id="element-id-64940"
          fill="#688272"
        />
        <path
          d="M252.00886,345.2906h8.97662v-65.21789h-9.61781v50.37899l-46.07387,-50.37899h-9.61781v9.61781h5.49589zM205.2938,308.28494h-9.61781v37.00566h9.61781z"
          data-paper-data='{"glyphName":"N","glyphIndex":1,"word":1}'
          id="element-id-82970"
          fill="#688272"
        />
        <path
          d="M279.7631,280.07271h-9.61781v65.21789h9.61781z"
          data-paper-data='{"glyphName":"I","glyphIndex":2,"word":1}'
          id="element-id-64636"
          fill="#688272"
        />
        <path
          d="M344.7062,343.91662c5.77068,-2.74794 9.52621,-8.51863 9.52621,-14.9305v-32.42575c0,-9.06822 -7.32785,-16.39607 -16.39607,-16.39607h-33.06694c-8.70183,0 -15.84648,7.87744 -15.84648,16.39607v32.42575c0,8.42703 7.23625,16.39607 15.84648,16.39607h15.93808l-8.24383,-9.52621c-1.28237,0 -2.56475,0.0916 -3.84712,0.0916c-4.9463,0 -10.0758,-0.91598 -10.0758,-6.96146v-32.42575c0,-3.38913 2.93114,-6.77826 6.41187,-6.77826h32.88374c3.66393,0 6.77826,3.02274 6.77826,6.68667v32.51735c0,3.75552 -2.93114,6.86986 -6.77826,6.86986l-8.24383,-9.61781h-12.64055l24.6399,28.76182h12.64055z"
          data-paper-data='{"glyphName":"Q","glyphIndex":3,"word":1}'
          id="element-id-32836"
          fill="#688272"
        />
        <path
          d="M428.70171,335.67279h-55.69168v-17.77004h46.07387v-9.61781h-55.69168v37.00566h65.30949zM428.79331,280.07271h-65.40109v9.61781h65.40109z"
          data-paper-data='{"glyphName":"E","glyphIndex":4,"lastGlyphOfWord":true,"word":1}'
          id="element-id-39897"
          fill="#688272"
        />
      </g>
      <g
        data-paper-data='{"fillRule":"evenodd","fillRuleOriginal":"evenodd","isIcon":true,"iconStyle":"standalone","selectedEffects":{"container":"","transformation":"rotate60;translate50","pattern":""},"bounds":{"x":195.09417957990817,"y":114.99999999999997,"width":159.81164084018374,"height":139.35790674709827},"iconType":"icon","rawIconId":"3612711","isDetailed":false,"suitableAsStandaloneIcon":true}'
        fill-rule="evenodd"
        id="element-id-17506"
      >
        <g data-paper-data='{"isPathIcon":true}' id="element-id-19847">
          <path
            d="M346.97982,253.5199l7.70399,-13.40999c0.297,-0.517 0.296,-1.153 -0.003,-1.669l-70.76595,-122.57191c-0.298,-0.516 -0.848,-0.834 -1.444,-0.836l-15.46599,-0.033c-0.599,-0.001 -1.153,0.319 -1.452,0.839l-70.23695,122.26591c-0.296,0.516 -0.296,1.152 0.002,1.668l7.76199,13.44399c0.298,0.516 0.848,0.833 1.443,0.836l141.0039,0.305c0.6,0.001 1.154,-0.318 1.453,-0.838zM258.15089,237.39992l-58.50196,-0.128l68.31895,-118.92792l11.61599,0.026l-30.82298,53.65496c-0.296,0.517 -0.295,1.152 0.003,1.668c0.297,0.516 0.847,0.834 1.443,0.836l34.37498,0.074l4.833,8.37199l-45.91597,-0.101c-0.599,0 -1.153,0.32 -1.452,0.839l-24.31398,42.32497c-0.296,0.517 -0.295,1.152 0.003,1.668c0.297,0.516 0.847,0.835 1.443,0.836l33.89998,0.073zM345.52582,249.33891l-31.04998,-53.78096c-0.299,-0.517 -0.851,-0.835 -1.448,-0.835c-0.598,0.001 -1.15,0.32 -1.448,0.838l-17.11899,29.80198l-9.62899,-0.021l22.87798,-39.82697c0.297,-0.517 0.296,-1.152 -0.002,-1.668l-24.49398,-42.43597c-0.299,-0.517 -0.851,-0.835 -1.448,-0.835c-0.598,0.001 -1.15,0.32 -1.448,0.838l-17.11999,29.80098l-10.10399,-0.022l29.37798,-51.13996l68.83395,119.22492zM276.74387,154.34497l5.027,-8.75099l21.59298,37.41097l-10.08499,-0.022zM282.64987,171.25696l-15.60199,-0.034l7.77199,-13.52799zM284.39887,195.07295l-32.98498,-0.071l-5.078,-8.77899l43.09297,0.095zM281.94387,223.65893l-5.069,-8.77899l16.40399,-28.55398l10.09799,0.021zM232.1709,225.22792l-10.10499,-0.022l21.40498,-37.26197l5.076,8.77499zM250.50189,196.67194l-0.001,-0.001l0.001,-0.001zM250.47489,196.71694l0.001,-0.03l0.026,0.015l-0.026,0.015zM274.99187,235.76092l-21.64198,-37.41197l10.13499,0.022l16.53399,28.63798zM282.48087,198.41194l-7.53799,13.12099l-7.59399,-13.15399zM205.49192,250.71191l-5.829,-10.09699l61.38196,0.133c0.598,0.001 1.15,-0.317 1.449,-0.834c0.3,-0.517 0.3,-1.155 0.002,-1.672l-17.01599,-29.47298l5.001,-8.70599l23.06998,39.88097c0.298,0.515 0.847,0.833 1.442,0.834l48.81697,0.106c0.597,0 1.15,-0.318 1.449,-0.835c0.299,-0.517 0.3,-1.154 0.001,-1.672l-17.25299,-29.88398l5.026,-8.75199l29.59998,51.26796zM298.31086,225.37092l7.77199,-13.52699l7.82899,13.56099zM251.14689,225.26792l-15.12699,-0.032l7.53499,-13.11699zM277.88087,237.44192l5.033,-8.76099l32.93098,0.071l5.071,8.78299z"
            id="element-id-58925"
            fill="#688272"
          />
        </g>
      </g>
    </g>
  </g>
  <rect
    data-element-id="element-id-35663"
    stroke-width="2"
    fill="transparent"
    class="invisible-element-box grouping-element"
    x="121"
    y="280"
    width="308"
    height="75"
    data-element-name="isPrimaryText"
  />
  <rect
    data-element-id="element-id-17506"
    stroke-width="2"
    fill="transparent"
    class="invisible-element-box grouping-element"
    x="195"
    y="115"
    width="160"
    height="139"
    data-element-name="isIcon"
  />
  <rect
    data-element-id="element-id-19847"
    stroke-width="2"
    fill="transparent"
    class="invisible-element-box individual-element"
    x="195"
    y="115"
    width="160"
    height="139"
  />
  <rect
    data-element-id="element-id-58925"
    stroke-width="2"
    fill="transparent"
    class="invisible-element-box individual-element"
    x="195"
    y="115"
    width="160"
    height="139"
  />
  <rect
    data-element-id="element-id-32836"
    stroke-width="2"
    fill="transparent"
    class="invisible-element-box individual-element"
    x="289"
    y="280"
    width="65"
    height="75"
  />
  <rect
    data-element-id="element-id-64940"
    stroke-width="2"
    fill="transparent"
    class="invisible-element-box individual-element"
    x="121"
    y="280"
    width="65"
    height="65"
  />
  <rect
    data-element-id="element-id-82970"
    stroke-width="2"
    fill="transparent"
    class="invisible-element-box individual-element"
    x="196"
    y="280"
    width="65"
    height="65"
  />
  <rect
    data-element-id="element-id-39897"
    stroke-width="2"
    fill="transparent"
    class="invisible-element-box individual-element"
    x="363"
    y="280"
    width="65"
    height="65"
  />
  <rect
    data-element-id="element-id-64636"
    stroke-width="2"
    fill="transparent"
    class="invisible-element-box individual-element"
    x="270"
    y="280"
    width="10"
    height="65"
  />
</svg>
